<?xml version="1.0" encoding="utf-8"?>
<!-- Generator: Adobe Illustrator 27.5.0, SVG Export Plug-In . SVG Version: 6.00 Build 0)  -->
<svg version="1.1" id="Layer_1" xmlns="http://www.w3.org/2000/svg" xmlns:xlink="http://www.w3.org/1999/xlink" x="0px" y="0px"
	 viewBox="0 0 110 135" style="enable-background:new 0 0 110 135;" xml:space="preserve">
<path d="M26.7,15.1c-0.8,0-1.6,0.3-2.2,0.9c-0.6,0.6-0.9,1.4-0.9,2.2v3.2l-8,0C9.8,21.4,5,26.2,5,32v62.3c0,5.8,4.8,10.6,10.6,10.6
	h78.8c5.8,0,10.6-4.8,10.6-10.6V32c0-5.8-4.8-10.6-10.6-10.6h-8v-3.2c0-0.8-0.3-1.6-0.9-2.2c-0.6-0.6-1.4-0.9-2.2-0.9
	c-0.8,0-1.6,0.3-2.2,0.9c-0.6,0.6-0.9,1.4-0.9,2.2v3.2H58.1v-3.2c0-0.8-0.3-1.6-0.9-2.2c-0.6-0.6-1.4-0.9-2.2-0.9
	c-0.8,0-1.6,0.3-2.2,0.9c-0.6,0.6-0.9,1.4-0.9,2.2v3.2H29.8v-3.2c0-0.8-0.3-1.6-0.9-2.2C28.3,15.4,27.5,15.1,26.7,15.1L26.7,15.1z
	 M15.6,27.7h8v3.2c0,0.8,0.3,1.6,0.9,2.2c0.6,0.6,1.4,0.9,2.2,0.9c0.8,0,1.6-0.3,2.2-0.9c0.6-0.6,0.9-1.4,0.9-2.2v-3.2h22.1v3.2
	c0,0.8,0.3,1.6,0.9,2.2c0.6,0.6,1.4,0.9,2.2,0.9c0.8,0,1.6-0.3,2.2-0.9c0.6-0.6,0.9-1.4,0.9-2.2v-3.2h22.1v3.2
	c0,0.8,0.3,1.6,0.9,2.2c0.6,0.6,1.4,0.9,2.2,0.9c0.8,0,1.6-0.3,2.2-0.9c0.6-0.6,0.9-1.4,0.9-2.2v-3.2h8c2.5,0,4.3,1.9,4.3,4.3V44
	l-87.5,0V32C11.3,29.6,13.1,27.7,15.6,27.7L15.6,27.7z M11.3,50.2l87.5,0v44.1c0,2.5-1.9,4.3-4.3,4.3l-78.8,0
	c-2.5,0-4.3-1.9-4.3-4.3L11.3,50.2z M23,56.5L23,56.5c-0.8,0-1.6,0.3-2.2,0.9c-0.6,0.6-0.9,1.4-0.9,2.2c0,1.7,1.4,3.1,3.1,3.1h9.6
	c0.8,0,1.6-0.3,2.2-0.9c0.6-0.6,0.9-1.4,0.9-2.2c0-0.8-0.3-1.6-0.9-2.2c-0.6-0.6-1.4-0.9-2.2-0.9L23,56.5z M50.2,56.5
	c-0.8,0-1.6,0.3-2.2,0.9s-0.9,1.4-0.9,2.2c0,0.8,0.3,1.6,0.9,2.2c0.6,0.6,1.4,0.9,2.2,0.9h9.6c1.7,0,3.1-1.4,3.1-3.1
	c0-0.8-0.3-1.6-0.9-2.2c-0.6-0.6-1.4-0.9-2.2-0.9L50.2,56.5z M77.4,56.5c-0.8,0-1.6,0.3-2.2,0.9c-0.6,0.6-0.9,1.4-0.9,2.2
	c0,1.7,1.4,3.1,3.1,3.1H87c1.7,0,3.1-1.4,3.1-3.1c0-0.8-0.3-1.6-0.9-2.2c-0.6-0.6-1.4-0.9-2.2-0.9L77.4,56.5z M23,71.3L23,71.3
	c-1.7,0-3.1,1.4-3.1,3.1c0,0.8,0.3,1.6,0.9,2.2c0.6,0.6,1.4,0.9,2.2,0.9h9.6c0.8,0,1.6-0.3,2.2-0.9c0.6-0.6,0.9-1.4,0.9-2.2
	c0-0.8-0.3-1.6-0.9-2.2c-0.6-0.6-1.4-0.9-2.2-0.9L23,71.3z M50.2,71.3c-0.8,0-1.6,0.3-2.2,0.9c-0.6,0.6-0.9,1.4-0.9,2.2
	c0,0.8,0.3,1.6,0.9,2.2c0.6,0.6,1.4,0.9,2.2,0.9h9.6c0.8,0,1.6-0.3,2.2-0.9c0.6-0.6,0.9-1.4,0.9-2.2c0-1.7-1.4-3.1-3.1-3.1
	L50.2,71.3z M77.4,71.3c-1.7,0-3.1,1.4-3.1,3.1c0,0.8,0.3,1.6,0.9,2.2c0.6,0.6,1.4,0.9,2.2,0.9H87c0.8,0,1.6-0.3,2.2-0.9
	c0.6-0.6,0.9-1.4,0.9-2.2c0-1.7-1.4-3.1-3.1-3.1H77.4z M23,86.1L23,86.1c-0.8,0-1.6,0.3-2.2,0.9c-0.6,0.6-0.9,1.4-0.9,2.2
	c0,1.7,1.4,3.1,3.1,3.1h9.6c0.8,0,1.6-0.3,2.2-0.9c0.6-0.6,0.9-1.4,0.9-2.2c0-0.8-0.3-1.6-0.9-2.2c-0.6-0.6-1.4-0.9-2.2-0.9L23,86.1
	z M50.2,86.1L50.2,86.1c-0.8,0-1.6,0.3-2.2,0.9c-0.6,0.6-0.9,1.4-0.9,2.2c0,0.8,0.3,1.6,0.9,2.2c0.6,0.6,1.4,0.9,2.2,0.9h9.6
	c1.7,0,3.1-1.4,3.1-3.1c0-0.8-0.3-1.6-0.9-2.2c-0.6-0.6-1.4-0.9-2.2-0.9L50.2,86.1z M77.4,86.1L77.4,86.1c-0.8,0-1.6,0.3-2.2,0.9
	c-0.6,0.6-0.9,1.4-0.9,2.2c0,1.7,1.4,3.1,3.1,3.1H87c1.7,0,3.1-1.4,3.1-3.1c0-0.8-0.3-1.6-0.9-2.2c-0.6-0.6-1.4-0.9-2.2-0.9
	L77.4,86.1z"/>
</svg>
