<?xml version="1.0" encoding="utf-8"?>
<!-- Generator: Adobe Illustrator 27.5.0, SVG Export Plug-In . SVG Version: 6.00 Build 0)  -->
<svg version="1.1"
	 id="Layer_1" xmlns:dc="http://purl.org/dc/elements/1.1/" xmlns:svg="http://www.w3.org/2000/svg" xmlns:sodipodi="http://sodipodi.sourceforge.net/DTD/sodipodi-0.dtd" xmlns:rdf="http://www.w3.org/1999/02/22-rdf-syntax-ns#" xmlns:inkscape="http://www.inkscape.org/namespaces/inkscape" xmlns:cc="http://creativecommons.org/ns#"
	 xmlns="http://www.w3.org/2000/svg" xmlns:xlink="http://www.w3.org/1999/xlink" x="0px" y="0px" viewBox="0 0 100 125"
	 style="enable-background:new 0 0 100 125;" xml:space="preserve">
<g transform="translate(0,-952.36218)">
	<path d="M17,972.4c-5,0-9,4.2-9,9.2v41.5c0,5,4,9.2,9,9.2h66c5,0,9-4.2,9-9.2v-41.5c0-5-4-9.2-9-9.2L17,972.4L17,972.4z
		 M17.4,978.4h65.2l-30.8,29.2c-1.1,1.1-2.4,1.1-3.5,0L17.4,978.4z M14,983.4l20.4,19.4L14,1023.1V983.4z M86,983.4v39.8l-20.4-20.4
		L86,983.4z M61.3,1006.8l19.5,19.5H19.2l19.5-19.5l5.4,5.1c3.3,3.1,8.5,3.1,11.8,0C55.9,1012,61.3,1006.8,61.3,1006.8z"/>
</g>
</svg>
