<svg id="Layer_1" data-name="Layer 1" xmlns="http://www.w3.org/2000/svg" viewBox="0 0 59.2 42.1"><defs><style>.cls-1{stroke:#000;stroke-miterlimit:10;}</style></defs><path class="cls-1" d="M60.2,18.9H54.5A10.3,10.3,0,0,1,50,17.8l-9.7-4.9A12.54,12.54,0,0,0,35,11.6H28.1A5.55,5.55,0,0,0,23.6,14l-9,1.3L3.9,14a1.45,1.45,0,0,0-.7.2.91.91,0,0,0-.3.7V34.3a.9.9,0,0,0,.9.9H5.6v2.6a4,4,0,0,0,.8,2.3,26.74,26.74,0,0,0,11.8,8,25.14,25.14,0,0,0,8.2,1.3h.7l2.7,2.7a2.19,2.19,0,0,0,.5.3,18.7,18.7,0,0,0,3.4.3A21.08,21.08,0,0,0,51.9,42.2a1.1,1.1,0,0,0,0-.8c0-.1-.1-.2-.1-.3l8.7-3.3a1,1,0,0,0,.6-.8V20C61,19.2,60.6,18.9,60.2,18.9ZM18.8,46.2a24.46,24.46,0,0,1-11-7.4,1.5,1.5,0,0,1-.4-1.1V35.1H10a7.91,7.91,0,0,1,5.4,2.2l10,10A20.76,20.76,0,0,1,18.8,46.2Zm28.8-1.5a23.89,23.89,0,0,0-2.2-5.2A26.45,26.45,0,0,0,39.2,32,.92.92,0,1,0,38,33.4a25.68,25.68,0,0,1,5.8,6.9,22.66,22.66,0,0,1,2.3,5.8,17.91,17.91,0,0,1-2.8,2c-.5.3-1,.5-1.5.8A16,16,0,0,0,35.6,38a.93.93,0,0,0-1.1,1.5A13.67,13.67,0,0,1,39,45.1a13.51,13.51,0,0,1,1.1,4.5,13.67,13.67,0,0,1-4,.9,11.57,11.57,0,0,0-5.4-7.7.87.87,0,0,0-1.2.4,1,1,0,0,0,.3,1.2,10,10,0,0,1,4.5,6.3,18.29,18.29,0,0,1-3.3-.2l-2.7-2.7h0L16.7,36.2A9.47,9.47,0,0,0,10,33.4H4.7V15.9L14.6,17h.2l7.5-1-.8,1.3a3.91,3.91,0,0,0,5.7,5.2l2.4-1.8h4.2A54.56,54.56,0,0,1,43.1,30a56.1,56.1,0,0,1,7,11.5A19.63,19.63,0,0,1,47.6,44.7Zm11.7-8.6L51,39.3a53.32,53.32,0,0,0-6.5-10.4A58,58,0,0,0,34.6,19a1.42,1.42,0,0,0-.6-.2H30.1V17a.9.9,0,1,0-1.8,0v2.3L26.1,21a2.08,2.08,0,0,1-2.9-.5,2.13,2.13,0,0,1-.1-2.3l2-3.2a3.66,3.66,0,0,1,3-1.6H35a10,10,0,0,1,4.5,1.1l9.7,4.9a12.19,12.19,0,0,0,5.3,1.3h4.8Z" transform="translate(-2.4 -11.1)"/></svg>