<svg id="Layer_1" data-name="Layer 1" xmlns="http://www.w3.org/2000/svg" viewBox="0 0 61 38.08"><defs><style>.cls-1{stroke:#000;stroke-miterlimit:10;}</style></defs><path class="cls-1" d="M57,22.42H50a3,3,0,0,0-3,2.8c-7.5-.6-10.9-2.1-13.2-3.1a8,8,0,0,0-8.8,1.6l-.6.7a74.88,74.88,0,0,0-11.6-.1,3,3,0,0,0-2.8-1.9H3a3,3,0,0,0-3,3v18a3,3,0,0,0,3,3H8.4a3,3,0,0,0,2.6-1.5A60.17,60.17,0,0,1,16,50c1.7,2,3.8,4.4,6.7,7.3a4,4,0,0,0,5.7,0,3.25,3.25,0,0,0,1-1.8,4.09,4.09,0,0,0,5.3-.3,4.27,4.27,0,0,0,1.1-2.1,4.14,4.14,0,0,0,4.6-.8,4.2,4.2,0,0,0,1.2-2.5,7.57,7.57,0,0,0,1.5.1A3.91,3.91,0,0,0,46,48a3.74,3.74,0,0,0,.3-3.1,22.11,22.11,0,0,0,2.4-1.4v.2a3,3,0,0,0,3,2.7H57a3,3,0,0,0,3-3v-18A3,3,0,0,0,57,22.42Zm-48.6,22H3a.94.94,0,0,1-1-1v-18a.94.94,0,0,1,1-1h7a.94.94,0,0,1,1,1v.1l-1.6,18A1.06,1.06,0,0,1,8.4,44.42ZM44.1,47a1.69,1.69,0,0,1-1.4.9,1.92,1.92,0,0,1-1.7-.6l-7.1-7.1a1,1,0,0,0-1.4,1.4L38.9,48h0a2,2,0,0,1-2.8,2.8l-7.1-7a1,1,0,1,0-1.4,1.4h0l5.7,5.7h0a1.93,1.93,0,0,1,0,2.8h0a1.93,1.93,0,0,1-2.8,0L24,47.32a1,1,0,1,0-1.4,1.4h0l4.2,4.2h0a2,2,0,0,1-2.8,2.8c-2.8-2.8-4.9-5.2-6.6-7.2a37.17,37.17,0,0,0-6-5.9l1.5-16.4a61.54,61.54,0,0,1,9.6-.1l-3.8,3.8a4.47,4.47,0,0,0,0,6.4,4.63,4.63,0,0,0,3.2,1.3h0a4.82,4.82,0,0,0,3.2-1.3l4.6-4.6a1,1,0,0,1,1.4,0h0l12.6,12.6a1.76,1.76,0,0,1,.4.5A2.17,2.17,0,0,1,44.1,47Zm1.1-3.9-.2-.2L32.5,30.42a2.9,2.9,0,0,0-4.2,0L23.7,35a2.41,2.41,0,0,1-1.8.7h0a2.87,2.87,0,0,1-1.8-.7,2.41,2.41,0,0,1-.7-1.8,2.87,2.87,0,0,1,.7-1.8l6.3-6.3a5.94,5.94,0,0,1,6.6-1.2c2.3,1,6.1,2.7,14.1,3.3l1.3,13.9a17.27,17.27,0,0,1-3.2,2Zm12.8.3a.94.94,0,0,1-1,1H51.6a1,1,0,0,1-1-.9l-1.6-18a1.09,1.09,0,0,1,.9-1.1H57a.94.94,0,0,1,1,1Z" transform="translate(0.5 -20.95)"/></svg>