<svg id="Layer_1" data-name="Layer 1" xmlns="http://www.w3.org/2000/svg" viewBox="0 0 43.35 91.1"><defs><style>.cls-1{stroke:#000;stroke-miterlimit:10;}</style></defs><path class="cls-1" d="M29.4,66.4l.2.4a21.68,21.68,0,0,1,1.7,5.8,29.59,29.59,0,0,0,1.3,4.9,25.26,25.26,0,0,0,4.2,7.3c.4.5.9,1,1.3,1.5,1.2,1.3,2.4,2.5,2.8,4a4.33,4.33,0,0,0,.1.5,5,5,0,0,0,1.1,2.4,5.33,5.33,0,0,0,4.1,1.6l9.1.3h0a.9.9,0,0,0,.5-.1,3.46,3.46,0,0,0,2.9-1c.9-.9.9-2,.8-3.3V88.6a16.74,16.74,0,0,1,.3-2.8,15.35,15.35,0,0,1,2.7-5.6,29.15,29.15,0,0,0,2.7-4.7c2.7-6.8.9-12.3-1.6-17.3l-1.2-2.5c.2-.6.3-1.1.5-1.7a51.83,51.83,0,0,1,1.7-5.6A46.88,46.88,0,0,1,67.7,42l1.4-2.7a2.83,2.83,0,0,0-.8-3.8c-2.4-1.6-5.4-.9-8.8,2.3a29.91,29.91,0,0,0-2.8,3.1,7.3,7.3,0,0,0-.9,1.3l-3.2-6.4A5.55,5.55,0,0,0,45.7,33a5.44,5.44,0,0,0-2.9,7.5l4,8.1h0a6,6,0,0,0-2.9.8,5.41,5.41,0,0,0-2.5,3.9,5.58,5.58,0,0,0-4,.7,5.45,5.45,0,0,0-2.5,4.6,5.37,5.37,0,0,0-5.5,7.8ZM59,42.7a37.41,37.41,0,0,1,2.5-2.8c2.1-2,3.8-2.7,4.9-2.1L65,40.5a53.38,53.38,0,0,0-3.3,6.8c-.5,1.4-.9,2.9-1.3,4.3l-3.1-6.2A21.18,21.18,0,0,1,59,42.7ZM33.2,61.8a2,2,0,0,1,1.1-.3,2.2,2.2,0,0,1,.8.1,2.36,2.36,0,0,1,1.4,1.2c.1.1.1.2.2.3l2.7,5.4a1.56,1.56,0,0,0,1.3.8,1.85,1.85,0,0,0,.7-.2,1.63,1.63,0,0,0,.7-2l-3.2-6.6c-.1-.1-.1-.2-.2-.3l-.3-.6a2.61,2.61,0,0,1,.8-3.3,2.32,2.32,0,0,1,3.4,1h0L46.4,65a1.56,1.56,0,0,0,1.3.8,1.85,1.85,0,0,0,.7-.2,1.63,1.63,0,0,0,.7-2l-3.8-7.7h0l-.5-1a2.61,2.61,0,0,1,.8-3.3,2.32,2.32,0,0,1,3.4,1h0l4.4,8.8a1.56,1.56,0,0,0,1.3.8,1,1,0,0,0,.7-.2,1.63,1.63,0,0,0,.7-2l-4.4-8.8h0L45.5,38.8a2.74,2.74,0,0,1-.1-2,3.16,3.16,0,0,1,1.4-1.4,2.68,2.68,0,0,1,3.1,1.3L61,59.4c2.5,5,3.7,9.4,1.5,14.8a21,21,0,0,1-2.4,4.2A17.63,17.63,0,0,0,57,85a15.32,15.32,0,0,0-.4,3.3v3.4a3.38,3.38,0,0,1-1.1,0,2.2,2.2,0,0,0-.8.1c-2.8-.1-5.7-.2-8.5-.2a2.4,2.4,0,0,1-1.9-.6,1.88,1.88,0,0,1-.4-1,1.42,1.42,0,0,0-.2-.6,12.33,12.33,0,0,0-3.5-5.3c-.4-.4-.8-.9-1.2-1.3a22.75,22.75,0,0,1-3.7-6.4c-.5-1.4-.8-2.9-1.2-4.5a27,27,0,0,0-2-6.5V65A2.37,2.37,0,0,1,33.2,61.8Z" transform="translate(-28.35 -4.5)"/><path class="cls-1" d="M56.3,7.4a8.92,8.92,0,0,0-6-2.4,8.88,8.88,0,0,0-8.9,8.9A8.77,8.77,0,0,0,44,20.2L55.2,31.4a1.71,1.71,0,0,0,2.2,0L68.6,20.2a8.93,8.93,0,0,0,0-12.6A8.77,8.77,0,0,0,62.3,5,8.3,8.3,0,0,0,56.3,7.4Zm11.9,6.5A5.66,5.66,0,0,1,66.5,18L56.3,28.2,46.1,18a5.83,5.83,0,0,1-1.7-4.1,6.07,6.07,0,0,1,1.7-4.2A5.89,5.89,0,0,1,50.3,8a5.66,5.66,0,0,1,4.1,1.7l.8.8h0a2.19,2.19,0,0,0,.5.3,1.73,1.73,0,0,0,1,.1,2.09,2.09,0,0,0,.6-.4l.8-.8A5.89,5.89,0,0,1,62.3,8a6.07,6.07,0,0,1,4.2,1.7A5.89,5.89,0,0,1,68.2,13.9Z" transform="translate(-28.35 -4.5)"/></svg>