<?xml version="1.0" encoding="utf-8"?>
<!-- Generator: Adobe Illustrator 27.5.0, SVG Export Plug-In . SVG Version: 6.00 Build 0)  -->
<svg version="1.1" id="Layer_1" xmlns="http://www.w3.org/2000/svg" xmlns:xlink="http://www.w3.org/1999/xlink" x="0px" y="0px"
	 viewBox="0 0 110 135" style="enable-background:new 0 0 110 135;" xml:space="preserve">
<style type="text/css">
	.st0{fill-rule:evenodd;clip-rule:evenodd;}
</style>
<path d="M33.1,50.6c0-1.7,1.4-3.1,3.1-3.1h37.5c1.7,0,3.1,1.4,3.1,3.1s-1.4,3.1-3.1,3.1H36.2C34.5,53.8,33.1,52.4,33.1,50.6z"/>
<path class="st0" d="M8.1,28.8c0-8.6,7-15.6,15.6-15.6h62.5c8.6,0,15.6,7,15.6,15.6v62.5c0,8.6-7,15.6-15.6,15.6H23.8
	c-8.6,0-15.6-7-15.6-15.6V28.8z M14.4,72.5c0,5.2,4.2,9.4,9.4,9.4h62.5c5.2,0,9.4-4.2,9.4-9.4V28.8c0-5.2-4.2-9.4-9.4-9.4H23.8
	c-5.2,0-9.4,4.2-9.4,9.4V72.5z M70.6,94.4c0-1.7,1.4-3.1,3.1-3.1h12.5c1.7,0,3.1,1.4,3.1,3.1s-1.4,3.1-3.1,3.1H73.8
	C72,97.5,70.6,96.1,70.6,94.4z"/>
</svg>
