<?xml version="1.0" encoding="utf-8"?>
<!-- Generator: Adobe Illustrator 27.5.0, SVG Export Plug-In . SVG Version: 6.00 Build 0)  -->
<svg version="1.1" id="Layer_1" xmlns="http://www.w3.org/2000/svg" xmlns:xlink="http://www.w3.org/1999/xlink" x="0px" y="0px"
	 viewBox="0 0 110 135" style="enable-background:new 0 0 110 135;" xml:space="preserve">
<path d="M90.4,79.5c-0.3-0.5-0.9-0.8-1.5-0.8H70.1V74c0-1-0.8-1.8-1.8-1.8h-2.2v-1.9c0-2.6-2.1-4.7-4.7-4.7h-1.4V31.8H75
	c0.8,0.9,1.8,1.6,3,2L67.5,52.9c-0.1,0.3-0.2,0.6-0.2,0.9c0,7.4,6,13.5,13.5,13.5s13.5-6,13.5-13.5c0-0.3-0.1-0.6-0.2-0.9L83.5,33.8
	c3-1.1,5.1-4,5.1-7.3c0-4.3-3.5-7.9-7.9-7.9c-2.3,0-4.3,1-5.8,2.5H60.1v-1.6c0-3.2-2.6-5.8-5.8-5.8c-3.2,0-5.8,2.6-5.8,5.8v1.6H35
	c-1.4-1.6-3.5-2.5-5.8-2.5c-4.3,0-7.9,3.5-7.9,7.9c0,3.4,2.1,6.2,5.1,7.3L16,52.9c-0.1,0.3-0.2,0.6-0.2,0.9c0,7.4,6,13.5,13.5,13.5
	c7.4,0,13.5-6,13.5-13.5c0-0.3-0.1-0.6-0.2-0.9L32,33.8c1.2-0.4,2.2-1.1,3-2h13.5v33.8h-1.4c-2.6,0-4.7,2.1-4.7,4.7v1.9h-2.2
	c-1,0-1.8,0.8-1.8,1.8v4.8H27c-4.3,0-7.8,3.5-7.8,7.8c0,2.4,1.1,4.5,2.8,6c-1.7,1.4-2.8,3.6-2.8,6c0,4.3,3.5,7.8,7.8,7.8h61.9
	c0.6,0,1.2-0.3,1.5-0.8c0.3-0.5,0.4-1.2,0.2-1.7c-1.4-3.2-1.3-6.7,0-10.6c0.2-0.4,0.1-0.9,0-1.3h0c-1.4-3.2-1.3-6.7,0-10.6
	C90.9,80.6,90.8,80,90.4,79.5L90.4,79.5z M80.7,36.3l8.6,15.6H72.2L80.7,36.3L80.7,36.3z M80.7,63.6c-4.8,0-8.8-3.5-9.7-8h19.3
	C89.6,60.1,85.5,63.6,80.7,63.6L80.7,63.6z M80.7,22.2c2.3,0,4.2,1.9,4.2,4.2s-1.9,4.2-4.2,4.2s-4.2-1.9-4.2-4.2
	S78.4,22.2,80.7,22.2z M52.1,19.6c0-1.2,1-2.1,2.1-2.1s2.1,1,2.1,2.1v1.6h-4.3V19.6z M29.3,36.3l8.6,15.6l-17.2,0L29.3,36.3
	L29.3,36.3z M29.3,63.6c-4.8,0-8.8-3.5-9.7-8h19.3C38.1,60.1,34.1,63.6,29.3,63.6L29.3,63.6z M29.3,30.7c-2.3,0-4.2-1.9-4.2-4.2
	s1.9-4.2,4.2-4.2s4.2,1.9,4.2,4.2S31.6,30.7,29.3,30.7z M36.9,24.8h36.1c-0.1,0.5-0.2,1.1-0.2,1.7s0.1,1.1,0.2,1.7l-36.1,0
	c0.1-0.5,0.2-1.1,0.2-1.7C37.1,25.9,37,25.3,36.9,24.8L36.9,24.8z M52.1,31.8h4.3v33.8h-4.3V31.8z M46.1,70.3c0-0.6,0.5-1.1,1.1-1.1
	h14.2c0.6,0,1.1,0.5,1.1,1.1v1.9H46.1L46.1,70.3L46.1,70.3z M42.1,75.8h24.5v2.9H42.1V75.8z M22.9,86.5c0-2.3,1.9-4.1,4.1-4.1h59.5
	c-0.7,2.9-0.7,5.7-0.1,8.3l-59.4,0C24.7,90.6,22.9,88.8,22.9,86.5L22.9,86.5z M86.4,102.6H27c-2.3,0-4.1-1.9-4.1-4.1
	s1.9-4.1,4.1-4.1h59.5C85.8,97.2,85.8,99.9,86.4,102.6L86.4,102.6z"/>
</svg>
