<?xml version="1.0" encoding="utf-8"?>
<!-- Generator: Adobe Illustrator 27.5.0, SVG Export Plug-In . SVG Version: 6.00 Build 0)  -->
<svg version="1.1" id="Layer_1" xmlns:serif="http://www.serif.com/"
	 xmlns="http://www.w3.org/2000/svg" xmlns:xlink="http://www.w3.org/1999/xlink" x="0px" y="0px" viewBox="0 0 32 40"
	 style="enable-background:new 0 0 32 40;" xml:space="preserve">
<style type="text/css">
	.st0{fill-rule:evenodd;clip-rule:evenodd;}
</style>
<g transform="matrix(1,0,0,1,-48,-96)">
	<path class="st0" d="M66.3,118.5l6.6,6.6c0.6,0.6,1.3,0.9,2.1,0.9s1.6-0.3,2.1-0.9l0,0c1.2-1.2,1.2-3.1,0-4.2l-6.7-6.7
		c0.8-1.6,1.3-3.3,1.3-5.2c0-6.1-4.9-11-10.9-11S50,102.9,50,109c0,6,4.9,11,10.9,11C62.9,119.9,64.7,119.4,66.3,118.5z M71.4,118
		l4.3,4.3c0.4,0.4,0.4,1,0,1.4l0,0c-0.2,0.2-0.4,0.3-0.7,0.3s-0.5-0.1-0.7-0.3l-4.3-4.3L71.4,118z M70,116.6l-1.4,1.4l-0.6-0.6
		l1.4-1.4L70,116.6z M60.9,100c4.9,0,8.9,4,8.9,9s-4,9-8.9,9s-8.9-4-8.9-9S56,100,60.9,100z M60.9,101c-4.4,0-8,3.6-8,8s3.6,8,8,8
		c4.4,0,8-3.6,8-8S65.3,101,60.9,101z M60.9,103c3.3,0,6,2.7,6,6s-2.7,6-6,6c-3.3,0-6-2.7-6-6S57.6,103,60.9,103z"/>
</g>
</svg>
