<?xml version="1.0" encoding="utf-8"?>
<!-- Generator: Adobe Illustrator 27.5.0, SVG Export Plug-In . SVG Version: 6.00 Build 0)  -->
<svg version="1.1" id="Layer_1" xmlns="http://www.w3.org/2000/svg" xmlns:xlink="http://www.w3.org/1999/xlink" x="0px" y="0px"
	 viewBox="0 0 110 135" style="enable-background:new 0 0 110 135;" xml:space="preserve">
<path d="M79.7,106.4H27.8c-4.4,0-8.1-3.6-8.1-8.1V86.8c-2.2,0.3-4.3-0.4-6-1.8c-1.6-1.4-2.6-3.5-2.6-5.7c0-2.2,0.9-4.2,2.6-5.7
	c1.6-1.4,3.8-2.1,6-1.8V48.1c-2.2,0.3-4.3-0.4-6-1.8c-1.6-1.4-2.6-3.5-2.6-5.7c0-2.2,0.9-4.2,2.6-5.7c1.6-1.4,3.8-2.1,6-1.8V21.7
	c0-4.4,3.6-8.1,8.1-8.1h51.8c4.5,0,8.1,3.6,8.1,8.1v32.6c1.4,0,2.8,0.6,3.8,1.6l5.7,5.7c1,1,1.6,2.5,1.6,3.9c0,1.5-0.6,2.9-1.7,3.9
	c-1.7,1.7-7.8,7.8-9.4,9.4v19.5C87.8,102.8,84.1,106.4,79.7,106.4L79.7,106.4z M66.5,100.1h13.2c1,0,1.8-0.8,1.8-1.8V85.1
	L66.5,100.1z M53,100.1h4.6l25.7-25.7l-4.7-4.7C70.8,77.7,57.4,91.1,53,95.5L53,100.1z M26,86.8v11.5c0,1,0.8,1.8,1.8,1.8h18.9v-5.9
	c0-0.1,0-0.1,0-0.2c0-0.8,0.4-1.5,0.9-2l0,0l0,0c5-5,26.6-26.7,33.8-33.9l0-36.4c0-1-0.8-1.8-1.8-1.8H27.8c-1,0-1.8,0.8-1.8,1.8
	v11.5c2.2-0.3,4.3,0.4,6,1.8c1.6,1.4,2.6,3.5,2.6,5.7c0,2.2-0.9,4.2-2.6,5.7c-1.6,1.4-3.8,2.1-6,1.8v23.8c2.2-0.3,4.3,0.4,6,1.8
	c1.6,1.4,2.6,3.5,2.6,5.7S33.6,83.6,32,85C30.4,86.5,28.2,87.1,26,86.8L26,86.8z M18.6,78.1C17,78,17,80.7,18.6,80.6h4.3h4.3
	c0.7,0,1.2-0.6,1.2-1.2s-0.5-1.2-1.2-1.2L18.6,78.1z M83.1,65.4l4.7,4.7l4.6-4.6l-4.7-4.7C86.6,61.9,85,63.5,83.1,65.4L83.1,65.4z
	 M92.8,66L92.8,66L92.8,66z M92.8,64.9L92.8,64.9L92.8,64.9z M18.6,39.4c-1.6-0.1-1.6,2.6,0.1,2.4h4.3h4.3c0.7,0,1.2-0.6,1.2-1.2
	s-0.5-1.2-1.2-1.2L18.6,39.4z M72.8,55.5H43.3c-1.7,0-3.1-1.4-3.1-3.1s1.4-3.1,3.1-3.1h29.5c1.7,0,3.1,1.4,3.1,3.1
	S74.5,55.5,72.8,55.5z M72.8,46.4H43.3c-0.8,0-1.6-0.3-2.2-0.9c-0.6-0.6-0.9-1.4-0.9-2.2V28.6c0-0.8,0.3-1.6,0.9-2.2
	c0.6-0.6,1.4-0.9,2.2-0.9h29.5c0.8,0,1.6,0.3,2.2,0.9c0.6,0.6,0.9,1.4,0.9,2.2v14.7c0,0.8-0.3,1.6-0.9,2.2
	C74.4,46.1,73.7,46.4,72.8,46.4z M46.5,40.2h23.2v-8.5H46.5V40.2z"/>
</svg>
