<?xml version="1.0" encoding="utf-8"?>
<!-- Generator: Adobe Illustrator 27.5.0, SVG Export Plug-In . SVG Version: 6.00 Build 0)  -->
<svg version="1.1" id="Layer_1" xmlns:serif="http://www.serif.com/"
	 xmlns="http://www.w3.org/2000/svg" xmlns:xlink="http://www.w3.org/1999/xlink" x="0px" y="0px" viewBox="0 0 32 40"
	 style="enable-background:new 0 0 32 40;" xml:space="preserve">
<style type="text/css">
	.st0{fill-rule:evenodd;clip-rule:evenodd;}
</style>
<g transform="matrix(1,0,0,1,-288,-192)">
	<path class="st0" d="M298,204h-1c-2.8,0-5,2.2-5,5v8c0,2.8,2.2,5,5,5h14c2.8,0,5-2.2,5-5v-8c0-2.8-2.2-5-5-5h-1v-4.5
		c0-3-2.7-5.5-6-5.5s-6,2.5-6,5.5V204z M297,206h14c1.7,0,3,1.3,3,3v8c0,1.7-1.3,3-3,3h-14c-1.7,0-3-1.3-3-3v-8
		C294,207.3,295.3,206,297,206z M308,204v-4.5c0-2-1.8-3.5-4-3.5s-4,1.5-4,3.5v4.5H308z M303.1,212.7v2.3c0,0.5,0.4,1,1,1s1-0.4,1-1
		v-2.3c0.6-0.3,1-1,1-1.7c0-1.1-0.9-2-2-2s-2,0.9-2,2C302.1,211.8,302.5,212.4,303.1,212.7z"/>
</g>
</svg>
