<?xml version="1.0" encoding="utf-8"?>
<!-- Generator: Adobe Illustrator 27.5.0, SVG Export Plug-In . SVG Version: 6.00 Build 0)  -->
<svg version="1.1" id="Layer_1" xmlns="http://www.w3.org/2000/svg" xmlns:xlink="http://www.w3.org/1999/xlink" x="0px" y="0px"
	 viewBox="0 0 110 135" style="enable-background:new 0 0 110 135;" xml:space="preserve">
<style type="text/css">
	.st0{fill-rule:evenodd;clip-rule:evenodd;}
</style>
<path class="st0" d="M55.9,15.1l38.4,11.1c1.3,0.4,2.2,1.6,2.2,2.9h0v26.3c0,25.6-17.1,42.4-40.5,49.5c-0.6,0.2-1.2,0.2-1.8,0
	C30.7,97.6,13.6,81,13.6,55.4V29.1c0-1.5,1-2.7,2.4-2.9l38.1-11C54.7,15,55.3,15,55.9,15.1L55.9,15.1z M72.8,61.2
	c-0.3,4.7-2.4,8.9-5.6,11.9C55.9,83.7,37.1,75.6,37.1,60c0-12.8,13-21.3,24.6-16.6c3.6,1.5,5.9-4.1,2.3-5.6c-2.8-1.2-5.9-1.8-9-1.8
	c-21.2,0-31.9,25.8-16.9,40.8c14.6,14.6,39.4,4.9,40.7-15.3C79.1,57.6,73.1,57.3,72.8,61.2L72.8,61.2z M70.2,46.1L55.6,59.8l-5-4.7
	c-2.9-2.7-7,1.7-4.1,4.4l7.1,6.6c1.1,1.1,2.9,1.1,4.1,0l16.7-15.6C77.2,47.8,73.1,43.4,70.2,46.1L70.2,46.1z M90.4,31.3L55,21.1
	L19.6,31.3v24c0,10.9,3.5,19.8,9.3,26.9C35.2,90,44.4,95.5,55,98.9c10.6-3.4,19.8-8.9,26.1-16.6c5.8-7.1,9.3-16.1,9.3-26.9
	L90.4,31.3z"/>
</svg>
