<?xml version="1.0" encoding="utf-8"?>
<!-- Generator: Adobe Illustrator 27.5.0, SVG Export Plug-In . SVG Version: 6.00 Build 0)  -->
<svg version="1.1" id="Layer_1" xmlns="http://www.w3.org/2000/svg" xmlns:xlink="http://www.w3.org/1999/xlink" x="0px" y="0px"
	 viewBox="0 0 110 135" style="enable-background:new 0 0 110 135;" xml:space="preserve">
<path d="M55,109c-11.3,0-22.2-3.9-30.9-11C15.4,91,9.3,81.1,7,70.1h0c-0.1-0.6,0.3-1.2,0.9-1.3c0.6-0.1,1.2,0.2,1.4,0.8
	C13.8,91.1,33,106.7,55,106.7c25.7,0,46.7-20.9,46.7-46.7S80.7,13.3,55,13.3S8.3,34.3,8.3,60v0.7c0,0.6-0.5,1.2-1.2,1.2
	c-0.6,0-1.2-0.5-1.2-1.2V60c0-13,5.2-25.5,14.4-34.7C29.5,16.1,42,11,55,11s25.5,5.2,34.7,14.4C98.9,34.5,104,47,104,60
	s-5.2,25.5-14.4,34.7C80.5,103.9,68,109,55,109L55,109z"/>
<path d="M7.5,67.3c-0.6,0-1.1-0.4-1.2-1c-0.1-0.6-0.1-1.2-0.2-1.8c-0.1-0.6,0.4-1.2,1.1-1.3c0.6-0.1,1.2,0.4,1.3,1.1
	c0.1,0.6,0.1,1.1,0.2,1.7c0,0.3,0,0.6-0.2,0.9c-0.2,0.2-0.5,0.4-0.8,0.4C7.6,67.3,7.6,67.3,7.5,67.3L7.5,67.3z"/>
<path d="M55,99.3c-21.6,0-39.3-17.6-39.3-39.3c0-21.6,17.6-39.3,39.3-39.3S94.3,38.4,94.3,60S76.6,99.3,55,99.3z M55,23.1
	c-20.4,0-36.9,16.6-36.9,36.9S34.6,96.9,55,96.9S91.9,80.4,91.9,60S75.4,23.1,55,23.1z"/>
<path d="M62.8,87.8c-1.7,0-3.4-0.2-5.1-0.5c-8.5-1.6-13.6-6.7-17.3-10.5c-3.3-3.3-11.9-12-12.2-25.2c0-2,0.1-4,0.4-5.9v0
	c0.5-3,1.9-5.8,4.1-7.9l4-4v0c1.1-1.1,2.8-1.7,4.4-1.5c1.6,0.2,3.1,1.1,3.9,2.4l7.5,11.7c1.3,2.1,1,4.9-0.7,6.7c0,0,0,0-0.1,0.1
	c-1.5,1.3-4.6,4-6.2,5.2c1,3.1,2.6,5.6,4.7,7.5c1.6,1.4,3.5,2.5,5.5,3.1c0.6-0.7,2-2.1,4.7-4.9h0c1.8-1.8,4.6-2.1,6.7-0.7l11.7,7.5
	c1.4,0.9,2.3,2.3,2.4,3.9c0.2,1.6-0.4,3.2-1.5,4.4l-3.1,3.1c-3.1,3.1-7.2,5-11.5,5.4C64.4,87.7,63.6,87.8,62.8,87.8L62.8,87.8z
	 M40.6,34.6c-0.8,0-1.6,0.3-2.1,0.9l-4,4v0c-1.8,1.8-3,4.1-3.5,6.7c-0.3,1.8-0.4,3.6-0.4,5.5c0.3,12.3,8.4,20.5,11.5,23.6
	c3.5,3.5,8.2,8.3,16,9.8c2.3,0.4,4.6,0.5,6.8,0.4c3.8-0.3,7.4-2,10.1-4.7l3.1-3.1v0c0.6-0.6,1-1.6,0.9-2.5c-0.1-0.9-0.6-1.7-1.4-2.2
	l-11.7-7.5v0c-1.2-0.8-2.8-0.6-3.8,0.4c-2.2,2.3-4.7,4.8-5,5.2v0c-0.3,0.4-0.8,0.6-1.3,0.5c-2.8-0.9-5.1-2.2-7.1-3.9
	c-2.7-2.3-4.6-5.5-5.6-9.4l0,0c-0.2-0.5,0.1-1.1,0.6-1.4c0.5-0.3,3.7-3,6.6-5.4c1-1,1.1-2.6,0.4-3.7L43.1,36
	c-0.5-0.8-1.3-1.3-2.2-1.4C40.8,34.6,40.7,34.6,40.6,34.6L40.6,34.6z M57.1,70.9C57.1,70.9,57.1,71,57.1,70.9L57.1,70.9
	C57.1,71,57.1,70.9,57.1,70.9L57.1,70.9z"/>
</svg>
