<?xml version="1.0" encoding="utf-8"?>
<!-- Generator: Adobe Illustrator 27.5.0, SVG Export Plug-In . SVG Version: 6.00 Build 0)  -->
<svg version="1.1" id="Layer_1" xmlns="http://www.w3.org/2000/svg" xmlns:xlink="http://www.w3.org/1999/xlink" x="0px" y="0px"
	 viewBox="0 0 110 135" style="enable-background:new 0 0 110 135;" xml:space="preserve">
<style type="text/css">
	.st0{fill-rule:evenodd;clip-rule:evenodd;}
</style>
<path class="st0" d="M81.2,81.6L81.2,81.6c3.7-3.7,3.7-9.6,0-13.3l-2.6-2.6c-1.7-1.7-4-2.6-6.4-2.6c-2.4,0-4.7,1-6.4,2.6l0,0
	c-0.8,0.8-2.1,1-3.2,0.5c-2.3-1.5-4.7-3.4-6.9-5.6c-2.1-2.1-4.1-4.5-5.5-6.8c-0.6-1.1-0.4-2.3,0.4-3.2l1.4-1.9c2-3.5,1.6-8-1.4-11
	l-2.6-2.6c-3.7-3.7-9.6-3.7-13.3,0l-1.7,1.7c-1.1,1.1-1.8,2.3-2.3,3.8c0,0,0,0,0,0C27.2,52.2,31.7,63,42.5,73.8
	c10.7,10.7,21.7,15.3,33.2,11.7c0,0,0,0,0,0c0.1,0,0.3-0.1,0.4-0.1c1.3,1.4,2.1,3.3,2,5.3c-0.1,2.5-1.4,4.7-3.5,6
	c-5.1,3.1-10.7,3.9-19.7,3.9c-22.4,0-40.6-18.2-40.6-40.6S32.6,19.4,55,19.4S95.6,37.6,95.6,60c0,5.2-1,10.2-2.8,14.8
	c-0.6,1.6,0.2,3.4,1.8,4c1.6,0.6,3.4-0.2,4.1-1.8c2.1-5.3,3.2-11.1,3.2-17.1c0-25.9-21-46.9-46.9-46.9S8.1,34.1,8.1,60
	s21,46.9,46.9,46.9c10.4,0,16.9-1.2,22.9-4.8c0,0,0,0,0,0c3.9-2.4,6.3-6.6,6.5-11.2C84.5,87.5,83.3,84.1,81.2,81.6L81.2,81.6z
	 M37.5,41.3l1.7-1.7c1.2-1.2,3.2-1.2,4.4,0l2.6,2.6c1.1,1.1,1.1,2.9,0,3.9c0,0-0.6,0.6-1.4,1.9c-1.5,2.7-1.6,6,0,8.8
	c0,0,0,0.1,0.1,0.1c1.7,2.7,4,5.5,6.5,8.1c2.5,2.5,5.3,4.8,8,6.5c0,0,0.1,0.1,0.1,0.1c3.5,2,7.9,1.4,10.7-1.5l0,0
	c0.5-0.5,1.2-0.8,2-0.8c0.7,0,1.4,0.3,2,0.8l2.6,2.6c1.2,1.2,1.2,3.2,0,4.4c-0.6,0.6-1.2,1.2-1.6,1.6c0,0-0.1,0.1-0.1,0.1
	c-0.3,0.3-0.8,0.6-1.2,0.8c-9.4,3-18.1-1.4-26.9-10.2C38.1,60.5,33.8,52,36.8,42.5C36.9,42,37.2,41.6,37.5,41.3L37.5,41.3z"/>
</svg>
